<svg width="48" height="48" viewBox="0 0 48 48" fill="none" xmlns="http://www.w3.org/2000/svg">
  <path d="M24 7.5C16.92 7.5 11.5 13.04 11.5 20.18V27.1C11.5 28.56 10.96 29.96 9.98 31.04L8.62 32.54C7.18 34.12 8.3 36.65 10.44 36.65H37.56C39.7 36.65 40.82 34.12 39.38 32.54L38.02 31.04C37.04 29.96 36.5 28.56 36.5 27.1V20.18C36.5 13.04 31.08 7.5 24 7.5Z" fill="#5B4206"/>
  <path d="M20.2 39.2C20.82 41.08 22.18 42.25 24 42.25C25.82 42.25 27.18 41.08 27.8 39.2H20.2Z" fill="#5B4206"/>
  <path d="M24 4.5C25.66 4.5 27 5.84 27 7.5H21C21 5.84 22.34 4.5 24 4.5Z" fill="#5B4206"/>
  <path d="M14.5 20.4C14.5 15.06 18.46 10.8 23.72 10.54" stroke="#FFF4C2" stroke-width="2.8" stroke-linecap="round"/>
</svg>
