<svg width="96" height="96" viewBox="0 0 96 96" fill="none" xmlns="http://www.w3.org/2000/svg">
  <rect x="6" y="6" width="84" height="84" rx="24" fill="#F4FFFA"/>
  <rect x="6" y="6" width="84" height="84" rx="24" stroke="#D8F5E8" stroke-width="2"/>
  <path d="M23 49C23 34 34 23 48 23C62 23 73 34 73 49" stroke="#7FD2B1" stroke-width="8" stroke-linecap="round"/>
  <rect x="18" y="46" width="14" height="22" rx="7" fill="#7FD2B1"/>
  <rect x="64" y="46" width="14" height="22" rx="7" fill="#7FD2B1"/>
  <path d="M38 67H53C61 67 66 63 68 56" stroke="#31685C" stroke-width="6" stroke-linecap="round"/>
  <circle cx="36" cy="67" r="5" fill="#31685C"/>
  <path d="M37 42H59C64 42 68 46 68 51V55C68 60 64 64 59 64H46L36 72V64C30 64 26 60 26 55V51C26 46 31 42 37 42Z" fill="white" stroke="#7FD2B1" stroke-width="4" stroke-linejoin="round"/>
  <circle cx="42" cy="53" r="2.8" fill="#31685C"/>
  <circle cx="49" cy="53" r="2.8" fill="#31685C"/>
  <circle cx="56" cy="53" r="2.8" fill="#31685C"/>
</svg>
